<?xml version="1.0" encoding="utf-8"?>
<!-- Generator: Adobe Illustrator 22.1.0, SVG Export Plug-In . SVG Version: 6.00 Build 0)  -->
<svg version="1.1" id="Layer_1" xmlns="http://www.w3.org/2000/svg" xmlns:xlink="http://www.w3.org/1999/xlink"
	 viewBox="0 0 500 500" style="enable-background:new 0 0 500 500;" xml:space="preserve">
<style type="text/css">
	.st0{fill:url(#SVGID_1_);}
	.st1{fill:url(#SVGID_2_);}
	.st2{fill:url(#SVGID_3_);}
</style>
<g>
	<linearGradient id="SVGID_1_" gradientUnits="userSpaceOnUse" x1="193.1435" y1="179.4731" x2="306.5493" y2="17.5128">
		<stop  offset="0" style="stop-color:#002246"/>
		<stop  offset="0.2602" style="stop-color:#212D72"/>
		<stop  offset="0.5408" style="stop-color:#164A9E"/>
		<stop  offset="0.8418" style="stop-color:#2483C5"/>
		<stop  offset="0.9949" style="stop-color:#0094D3"/>
	</linearGradient>
	<path class="st0" d="M82.5,102c0,0,34.5,20.1,41,21.6c6.5,1.5,12.2-2.5,12.2-2.5s101.9-58.7,103-59.4c-0.3,0.2-0.3,0.2,0,0
		c0.7-0.4,0.2-0.1,0,0c5.6-3.1,9.4-3.4,10.4-3.4h0.2c0,0,0.1,0,0.1,0c0,0,0,0,0,0h0.5h0.5c0,0,0,0,0,0c0,0,0.1,0,0.1,0h0.2
		c1,0,4.8,0.3,10.4,3.4c-0.2-0.1-0.7-0.4,0,0c0.3,0.2,0.3,0.2,0,0c1.1,0.7,103,59.4,103,59.4s5.7,4,12.2,2.5
		c6.5-1.5,41-21.6,41-21.6s4.7-3.2,0-7c-4.7-3.7-147.9-86-147.9-86l-9.7-5.2c0,0-5.6-2.9-9.8-2.9c-4.2,0-9.8,2.9-9.8,2.9L230.4,9
		c0,0-143.2,82.3-147.9,86C77.8,98.7,82.5,102,82.5,102z"/>
	<linearGradient id="SVGID_2_" gradientUnits="userSpaceOnUse" x1="193.1405" y1="482.4888" x2="306.5454" y2="320.5298">
		<stop  offset="0" style="stop-color:#002246"/>
		<stop  offset="0.2602" style="stop-color:#212D72"/>
		<stop  offset="0.5408" style="stop-color:#164A9E"/>
		<stop  offset="0.8418" style="stop-color:#2483C5"/>
		<stop  offset="0.9949" style="stop-color:#0094D3"/>
	</linearGradient>
	<path class="st1" d="M417.2,398c0,0-34.5-20.1-41-21.6c-6.5-1.5-12.2,2.5-12.2,2.5s-101.9,58.7-103,59.4c0.3-0.2,0.3-0.2,0,0
		c-0.7,0.4-0.2,0.1,0,0c-5.6,3.1-9.4,3.4-10.4,3.4h-0.2c0,0-0.1,0-0.1,0c0,0,0,0,0,0h-0.5h-0.5c0,0,0,0,0,0c0,0,0,0-0.1,0h-0.2
		c-1,0-4.8-0.3-10.4-3.4c0.2,0.1,0.7,0.4,0,0c-0.3-0.2-0.3-0.2,0,0c-1.1-0.7-103-59.4-103-59.4s-5.7-4-12.2-2.5
		c-6.5,1.5-41,21.6-41,21.6s-4.7,3.2,0,7c4.7,3.7,147.9,86,147.9,86l9.7,5.2c0,0,5.6,2.9,9.8,2.9c4.2,0,9.8-2.9,9.8-2.9l9.7-5.2
		c0,0,143.2-82.3,147.9-86C421.9,401.3,417.2,398,417.2,398z"/>
	<linearGradient id="SVGID_3_" gradientUnits="userSpaceOnUse" x1="117.3051" y1="439.287" x2="382.3849" y2="60.7139">
		<stop  offset="0" style="stop-color:#002246"/>
		<stop  offset="0.2602" style="stop-color:#212D72"/>
		<stop  offset="0.5408" style="stop-color:#164A9E"/>
		<stop  offset="0.8418" style="stop-color:#2483C5"/>
		<stop  offset="0.9949" style="stop-color:#0094D3"/>
	</linearGradient>
	<path class="st2" d="M473.8,223.3L473.8,223.3l0-81.3c0-17.8-8.5-23.5-11.3-25c-11.5-6.3-23,0.4-23,0.4L249.8,222.5v0l-70.3,39.1v0
		l-87.8,48.6c0,0-10.3,6.2-13,2.1c-1.3-1.9-1-4.4-1-12.3l0-36.1h0l0-11.9v-0.6l0,0v-0.7v-0.7l0,0v-0.6l0-11.9h0l0-36.1
		c0-7.9-0.3-10.4,1-12.3c2.7-4.1,13,2.1,13,2.1l70.6,39l0,0l3.4,1.9c2.9,1.4,7.2,2.9,10.7,1.8c5.8-1.9,37.2-19.5,37.2-19.5
		s5.7-2.8,6.1-5.3c0.4-2.8-2.4-4.6-4.7-5.8L60.1,117.3c0,0-11.5-6.7-23-0.4c-2.8,1.5-11.3,7.3-11.3,25l0,81.3h0l0,26.7l0,26.7h0
		l0,81.3c0,17.8,8.5,23.5,11.3,25c11.5,6.3,23-0.4,23-0.4l189.7-105.2v0l70.3-39.1v0l87.8-48.6c0,0,10.3-6.2,13-2.1
		c1.3,1.9,1,4.4,1,12.3l0,36.1h0l0,11.9v0.6l0,0v0.7v0.7l0,0v0.6l0,11.9h0l0,36.1c0,7.9,0.3,10.4-1,12.3c-2.7,4.1-13-2.1-13-2.1
		l-70.6-39h0L334,268c-2.9-1.4-7.2-2.9-10.7-1.8c-5.8,1.9-37.2,19.5-37.2,19.5s-5.7,2.8-6.1,5.3c-0.4,2.8,2.4,4.6,4.7,5.8
		l154.7,85.8c0,0,11.5,6.7,23,0.4c2.8-1.5,11.3-7.3,11.3-25l0-81.3h0l0-26.7L473.8,223.3z"/>
</g>
</svg>
