<svg xmlns="http://www.w3.org/2000/svg" xmlns:xlink="http://www.w3.org/1999/xlink" viewBox="0 0 323.51 359.66"><defs><style>.cls-1{fill:url(#linear-gradient);}.cls-2{fill:url(#linear-gradient-2);}.cls-3{fill:url(#linear-gradient-3);}</style><linearGradient id="linear-gradient" x1="120.8" y1="128.89" x2="202.71" y2="11.93" gradientUnits="userSpaceOnUse"><stop offset="0" stop-color="#002246"/><stop offset="0.26" stop-color="#212d72"/><stop offset="0.54" stop-color="#164a9e"/><stop offset="0.84" stop-color="#2483c5"/><stop offset="0.99" stop-color="#0094d3"/></linearGradient><linearGradient id="linear-gradient-2" x1="120.8" y1="347.73" x2="202.7" y2="230.76" xlink:href="#linear-gradient"/><linearGradient id="linear-gradient-3" x1="66.03" y1="317.58" x2="257.48" y2="44.17" xlink:href="#linear-gradient"/></defs><title>Asset 1</title><g id="Layer_2" data-name="Layer 2"><g id="Layer_1-2" data-name="Layer 1"><path class="cls-1" d="M40.87,72.93S65.8,87.46,70.49,88.54s8.8-1.79,8.8-1.79,73.59-42.39,74.39-42.88h0c.47-.28.18-.1,0,0,4-2.21,6.77-2.44,7.53-2.45h1.09c.76,0,3.5.24,7.53,2.45h0c.8.49,74.39,42.88,74.39,42.88s4.12,2.87,8.8,1.79,29.61-15.61,29.61-15.61,3.38-2.34,0-5S175.81,5.79,175.81,5.79l-7-3.73S164.8,0,161.75,0s-7.07,2.06-7.07,2.06l-7,3.73S44.25,65.21,40.87,67.9,40.87,72.93,40.87,72.93Z"/><path class="cls-2" d="M282.63,286.73S257.71,272.19,253,271.12s-8.8,1.79-8.8,1.79-73.59,42.39-74.39,42.87h0c-4,2.21-6.77,2.45-7.53,2.46h-1.09c-.76,0-3.5-.25-7.53-2.46h0c-.8-.48-74.39-42.87-74.39-42.87s-4.12-2.87-8.8-1.79-29.62,15.61-29.62,15.61-3.37,2.34,0,5S147.7,353.87,147.7,353.87l7,3.73s4,2.08,7.07,2.06,7.08-2.06,7.08-2.06l7-3.73s103.45-59.42,106.82-62.11S282.63,286.73,282.63,286.73Z"/><path class="cls-3" d="M323.51,161.6h0V102.86c0-12.84-6.12-17-8.15-18.09-8.29-4.58-16.58.27-16.58.27l-137,76h0L111,189.26h0L47.53,224.33s-7.45,4.45-9.42,1.52c-.94-1.41-.73-3.21-.72-8.91V190.83h0v-9h0v-1.08h0v-9h0v-26.1c0-5.7-.22-7.51.72-8.91,2-2.94,9.42,1.52,9.42,1.52l51,28.17h0l2.46,1.36c2.12,1,5.22,2.09,7.72,1.29,4.22-1.35,26.83-14.1,26.83-14.1s4.09-2,4.37-3.81c.32-2-1.7-3.29-3.37-4.22L24.75,85s-8.29-4.85-16.58-.27C6.14,85.89,0,90,0,102.86V161.6H0v38.55H0v58.74c0,12.84,6.12,17,8.15,18.09,8.29,4.57,16.58-.27,16.58-.27l137-76h0l50.79-28.24h0L276,137.42s7.45-4.46,9.42-1.52c.94,1.4.73,3.21.72,8.91v26.1h0v9h0V181h0v9h0V216c0,5.7.22,7.5-.72,8.91-2,2.93-9.42-1.52-9.42-1.52l-51-28.17h0l-2.46-1.36c-2.12-1-5.23-2.09-7.72-1.29C210.62,194,188,206.7,188,206.7s-4.09,2-4.38,3.81c-.31,2.06,1.7,3.3,3.38,4.22l111.75,62s8.29,4.84,16.58.27c2-1.12,8.17-5.25,8.15-18.09V200.15h0V161.6Z"/></g></g></svg>