<svg width="24" height="24" xmlns="http://www.w3.org/2000/svg">
  <g fill="none" fill-rule="evenodd">
    <path d="M0 0h24v24H0z"/>
    <path d="M4.1023509 4.8528s1.69042317.9648 2.00890869 1.0368c.31848552.072.59777283-.12.59777283-.12S11.7019055 2.952 11.755803 2.9184c-.0146993.0096-.0146993.0096 0 0 .0342985-.0192.0097996-.0048 0 0 .2743875-.1488.4605791-.1632.5095769-.1632H12.3437763c.0489978 0 .2351893.0144.5095768.1632-.0097995-.0048-.0342984-.0192 0 0 .0146994.0096.0146994.0096 0 0 .0538976.0336 5.0467706 2.8512 5.0467706 2.8512s.2792873.192.5977729.12c.3184855-.072 2.0089086-1.0368 2.0089086-1.0368s.2302896-.1536 0-.336c-.2302895-.1776-7.2467706-4.128-7.2467706-4.128l-.4752784-.2496S12.5103687 0 12.3045781 0c-.2057907 0-.4801782.1392-.4801782.1392l-.4752784.2496s-7.01648106 3.9504-7.2467706 4.128c-.23028953.1776 0 .336 0 .336zM20.5068052 19.0529551s-1.6904231-.9648-2.0089086-1.0368c-.3184856-.072-.5977729.12-.5977729.12s-4.992873 2.8176-5.0467706 2.8512c.0146994-.0096.0146994-.0096 0 0-.0342984.0192-.0097995.0048 0 0-.2743875.1488-.460579.1632-.5095768.1632h-.0097996-.0538975H12.2653799c-.0489978 0-.2351894-.0144-.5095769-.1632.0097996.0048.0342985.0192 0 0-.0146993-.0096-.0146993-.0096 0 0-.0538975-.0336-5.04677058-2.8512-5.04677058-2.8512s-.27928731-.192-.59777283-.12c-.31848552.072-2.00890869 1.0368-2.00890869 1.0368s-.23028953.1536 0 .336c.23028954.1776 7.2467706 4.128 7.2467706 4.128l.4752784.2496s.2743875.1392.4801782.1392c.2057906 0 .4801781-.1392.4801781-.1392l.4752784-.2496s7.0164811-3.9504 7.2467706-4.128c.2302896-.1776 0-.336 0-.336z" fill="#000"/>
    <path d="M22.9510022 10.2367967V6.33439666c0-.8544-.416481-1.128-.5536748-1.2-.5634744-.3024-1.1269488.0192-1.1269488.0192l-9.2948775 5.04480004-3.44454342 1.8768-4.30200445 2.3328s-.50467706.2976-.63697105.1008c-.0636971-.0912-.04899777-.2112-.04899777-.5904V9.18559666c0-.3792-.01469933-.4992.04899777-.5904.13229399-.1968.63697105.1008.63697105.1008l3.45924276 1.87200004.16659243.0912c.14209354.0672.35278396.1392.52427617.0864.28418708-.0912 1.82271711-.93600004 1.82271711-.93600004s.2792873-.1344.2988865-.2544c.0195991-.1344-.1175947-.2208-.2302896-.2784l-7.58975499-4.128s-.56347439-.3216-1.12694878-.0192c-.13719376.072-.55367483.3504-.55367483 1.2V16.6975967c0 .8544.41648107 1.128.55367483 1.2.56347439.3024 1.12694878-.0192 1.12694878-.0192l9.29487749-5.0496 3.4445434-1.8768 4.3020045-2.33280004s.5046771-.2976.636971-.1008c.0636971.0912.0489978.2112.0489978.5904v4.73280004c0 .3792.0146993.4992-.0489978.5904-.1322939.1968-.636971-.1008-.636971-.1008l-3.4592428-1.872-.1616926-.0768c-.1420936-.0672-.352784-.1392-.5242762-.0864-.2841871.0912-1.8227171.936-1.8227171.936s-.2792873.1344-.2988864.2544c-.0195992.1344.1175946.2208.2302895.2784l7.5799554 4.1184s.5634744.3216 1.1269488.0192c.1371938-.072.5536748-.3504.5536748-1.2v-5.184l.0048998-1.2816z" fill="#000"/>
  </g>
</svg>